<svg width="322" height="486" viewBox="0 0 322 486" fill="none" xmlns="http://www.w3.org/2000/svg">
<path d="M88.7209 448.007H161.721V37.0068H88.7209C65.5209 36.6068 58.0542 53.8402 57.2209 62.5068C57.0542 170.507 56.8209 392.707 57.2209 417.507C57.6209 442.307 78.3875 448.173 88.7209 448.007Z" stroke="#E67E22"/>
<circle cx="126.221" cy="71.5068" r="4.5" fill="#E67E22"/>
<path d="M146.221 70.0068H161.721V74.0068H146.221C144.221 74.4068 143.721 72.8402 143.721 72.0068C144.121 70.4068 145.554 70.0068 146.221 70.0068Z" stroke="#E67E22"/>
<path fill-rule="evenodd" clip-rule="evenodd" d="M158.721 406.007C157.064 406.007 155.721 407.35 155.721 409.007V417.007C155.721 418.664 157.064 420.007 158.721 420.007H161.721V406.007H158.721ZM159.578 407.007C157.921 407.007 156.578 408.35 156.578 410.007V416.007C156.578 417.664 157.921 419.007 159.578 419.007H160.864V407.007H159.578Z" fill="#E67E22"/>
<path fill-rule="evenodd" clip-rule="evenodd" d="M161.721 398.007C153.437 398.007 146.721 404.723 146.721 413.007C146.721 421.291 153.437 428.007 161.721 428.007V427.007C153.989 427.007 147.721 420.739 147.721 413.007C147.721 405.275 153.989 399.007 161.721 399.007V398.007Z" fill="#E67E22"/>
<rect x="71.2209" y="105.507" width="90" height="274" stroke="#E67E22"/>
<path d="M80.32 232V211.6H83.96V232H80.32ZM84.12 203.36V207.28H80.2V203.36H84.12ZM93.1934 211.6C93.1934 212.667 93.6068 213.547 94.4334 214.24C95.2868 214.933 96.3401 215.427 97.5934 215.72C98.8468 215.987 100.207 216.333 101.673 216.76C103.167 217.16 104.54 217.6 105.793 218.08C107.047 218.56 108.087 219.36 108.913 220.48C109.767 221.573 110.193 222.947 110.193 224.6C110.193 226.893 109.247 228.773 107.353 230.24C105.487 231.68 102.873 232.4 99.5134 232.4C96.1534 232.4 92.9534 231.68 89.9134 230.24V226.68H90.1134C92.8868 228.227 96.0468 229 99.5934 229C104.26 229 106.593 227.453 106.593 224.36C106.593 222.84 105.46 221.72 103.193 221C102.207 220.68 101.113 220.373 99.9134 220.08C98.7134 219.787 97.5001 219.44 96.2734 219.04C95.0734 218.64 93.9668 218.173 92.9534 217.64C91.9668 217.08 91.1534 216.32 90.5134 215.36C89.9001 214.373 89.5934 213.213 89.5934 211.88C89.5934 209.56 90.5001 207.613 92.3134 206.04C94.1534 204.467 96.6201 203.68 99.7134 203.68C102.833 203.68 105.647 204.16 108.153 205.12V208.52H107.873C105.367 207.507 102.953 207 100.633 207C98.3401 207 96.5268 207.413 95.1934 208.24C93.8601 209.04 93.1934 210.16 93.1934 211.6ZM124.282 219.8L133.482 232H129.002L121.802 222.36H121.682L118.722 225.32V232H115.082V202.8H118.722V220.68H118.842L127.682 211.6H132.562L124.282 219.8ZM154.918 211.6L142.638 241.2H138.958L142.398 232.32L133.958 211.6H137.878L144.278 227.72H144.438L150.998 211.6H154.918Z" fill="#E67E22"/>
<path d="M213.016 48.9507V56.225C212.666 58.3034 210.494 62.4602 204.609 62.4602H161M213.016 48.9507H161M213.016 48.9507H237.71C241.914 49.4703 250.53 52.4839 251.371 60.3818V419.942C251.546 424.965 249.059 435.114 237.71 435.53H161M161 62.4602V435.53M161 62.4602V54.1466M161 48.9507V37H238.761C246.467 37.5196 262.3 42.9234 263.981 60.3818V424.099C264.331 430.161 259.988 443.428 239.812 448H161V435.53M161 48.9507V51.0291M161 51.0291H172.034C172.909 51.5487 174.135 52.8996 172.034 54.1466H161M161 51.0291V54.1466" stroke="#E67E22"/>
<ellipse cx="184.118" cy="52.5879" rx="1.57624" ry="1.55879" fill="#E67E22"/>
<path d="M193.4 229.52C191.48 231.44 189.227 232.4 186.64 232.4C184.053 232.4 181.813 231.413 179.92 229.44H179.8V241.2H176.16V211.6H179.36L179.8 214.16H179.92C181.813 212.187 184.053 211.2 186.64 211.2C189.227 211.2 191.48 212.16 193.4 214.08C195.347 216 196.32 218.573 196.32 221.8C196.32 225.027 195.347 227.6 193.4 229.52ZM186.12 214.6C183.72 214.6 181.613 215.6 179.8 217.6V226C181.613 228 183.72 229 186.12 229C188.093 229 189.68 228.373 190.88 227.12C192.08 225.867 192.68 224.093 192.68 221.8C192.68 219.507 192.08 217.733 190.88 216.48C189.68 215.227 188.093 214.6 186.12 214.6ZM210.594 219.8L219.794 232H215.314L208.114 222.36H207.994L205.034 225.32V232H201.394V202.8H205.034V220.68H205.154L213.994 211.6H218.874L210.594 219.8ZM223.59 212.72C225.91 211.707 228.39 211.2 231.03 211.2C233.697 211.2 235.737 211.973 237.15 213.52C238.564 215.067 239.27 216.92 239.27 219.08V232H236.07L235.63 229.44H235.51C233.59 231.413 231.124 232.4 228.11 232.4C226.297 232.4 224.75 231.853 223.47 230.76C222.217 229.667 221.59 228.173 221.59 226.28C221.59 224.387 222.364 222.853 223.91 221.68C225.484 220.507 227.777 219.92 230.79 219.92H235.63V219.6C235.63 217.84 235.19 216.573 234.31 215.8C233.457 215.027 231.964 214.64 229.83 214.64C227.697 214.64 225.697 215.093 223.83 216H223.59V212.72ZM235.63 226.2V222.84H231.27C227.244 222.84 225.23 223.907 225.23 226.04C225.23 228.147 226.644 229.2 229.47 229.2C230.644 229.2 231.777 228.92 232.87 228.36C233.964 227.773 234.884 227.053 235.63 226.2Z" fill="#E67E22"/>
</svg>
